<?xml version="1.0" encoding="utf-8"?>
<!-- Generator: Adobe Illustrator 24.3.0, SVG Export Plug-In . SVG Version: 6.00 Build 0)  -->
<svg version="1.1" id="Слой_1" xmlns="http://www.w3.org/2000/svg" xmlns:xlink="http://www.w3.org/1999/xlink" x="0px" y="0px"
	 viewBox="0 0 1280 870" style="enable-background:new 0 0 1280 870;" xml:space="preserve">
<style type="text/css">
	.st0{fill:#3590FF;}
</style>
<g transform="translate(0.000000,870.000000) scale(0.100000,-0.100000)">
	<path class="st0" d="M2765,8694c-16-2-66-9-110-15c-590-78-1135-462-1418-999c-317-601-293-1314,63-1895c252-412,684-729,1155-849
		c256-65,595-73,842-22c299,63,585,195,810,374c43,35,52,48,58,84c70,461,256,851,575,1207c102,114,104,122,90,334
		c-46,681-444,1280-1055,1585c-264,132-505,190-810,197C2872,8697,2782,8696,2765,8694z"/>
	<path class="st0" d="M9715,8694c-16-2-66-9-110-15c-379-50-763-237-1054-514c-274-261-478-636-551-1010c-23-124-40-343-32-425
		c5-51,10-60,86-145c106-118,171-201,239-305c165-256,284-557,331-845c16-94,19-102,54-134c65-59,243-171,367-232
		c143-69,292-120,458-155c167-35,437-43,617-20c439,58,821,252,1130,572c678,704,716,1796,89,2549c-291,349-703,583-1159,660
		C10089,8690,9778,8703,9715,8694z"/>
	<path class="st0" d="M6140,6944c-762-104-1397-670-1590-1420c-290-1124,491-2246,1652-2373c1024-112,1966,636,2093,1662
		c47,383-16,749-192,1096c-286,568-828,954-1456,1036C6503,6963,6282,6963,6140,6944z"/>
	<path class="st0" d="M11300,5039c-230-188-512-337-792-418c-445-128-902-120-1340,26c-129,42-348,143-464,212l-51,31l-7-67
		c-26-268-109-548-233-793c-96-187-196-331-365-523c-39-44-41-49-24-59c126-70,451-373,578-538c247-321,435-707,578-1187l34-113
		h1793h1793v75c0,123-19,407-41,600c-88,791-320,1565-610,2030c-190,305-447,577-719,762l-45,31L11300,5039z"/>
	<path class="st0" d="M1354,5057c-179-123-414-346-540-512c-94-124-206-298-273-425C241,3548,37,2665,4,1797l-7-187l1794,2l1793,3
		l41,135c228,745,560,1254,1060,1627c55,41,101,78,103,82c1,4-25,37-58,74c-311,339-517,792-572,1256l-12,101l-50-31
		c-116-69-335-170-464-212c-655-218-1363-126-1937,251c-66,43-154,106-195,140s-77,62-80,61C1417,5099,1388,5080,1354,5057z"/>
	<path class="st0" d="M7730,3229c-156-119-405-249-609-318c-388-131-832-153-1231-60c-278,64-565,194-798,361c-51,37-89,58-98,54
		c-37-14-202-135-302-221c-96-83-205-199-314-336c-69-86-199-294-262-419c-210-414-377-1014-461-1662c-19-151-45-469-45-559V0h2792
		h2791l-6,148c-30,686-198,1451-439,2002c-202,462-488,823-849,1070c-48,33-91,60-96,59C7799,3279,7766,3256,7730,3229z"/>
</g>
</svg>
